<svg width="13" height="23" viewBox="0 0 13 23" fill="none" xmlns="http://www.w3.org/2000/svg">
<path d="M11.5016 12.6664L12.1355 8.59918H8.17392V6.01684C8.14853 5.75043 8.17734 5.48174 8.25867 5.22627C8.34 4.9708 8.47225 4.7336 8.64779 4.52835C8.82334 4.3231 9.03868 4.15385 9.28145 4.03038C9.52421 3.90691 9.78958 3.83165 10.0623 3.80894C10.2113 3.78942 10.3622 3.78942 10.5112 3.80894H12.3335V0.284061C11.2673 0.118447 10.1908 0.023543 9.11147 0C5.81021 0 3.65778 1.96257 3.65778 5.48746V8.58626H0V12.6664H3.65778V22.5051H8.1607V12.6664H11.5016Z" fill="#898BBF"/>
</svg>
