<svg width="22" height="22" viewBox="0 0 22 22" fill="none" xmlns="http://www.w3.org/2000/svg">
<path d="M10.8812 5.35815C9.83646 5.35815 8.81526 5.66105 7.94666 6.22855C7.07796 6.79605 6.40096 7.60266 6.00116 8.54641C5.60146 9.49011 5.49676 10.5285 5.70066 11.5304C5.90446 12.5322 6.40746 13.4525 7.14616 14.1748C7.88486 14.8971 8.82606 15.389 9.85066 15.5882C10.8753 15.7875 11.9374 15.6852 12.9025 15.2943C13.8677 14.9034 14.6927 14.2415 15.2731 13.3921C15.8535 12.5428 16.1632 11.5443 16.1632 10.5228C16.1632 9.15311 15.6068 7.83941 14.6162 6.87084C13.6256 5.90228 12.2821 5.35815 10.8812 5.35815ZM10.8812 13.8798C10.2074 13.8798 9.54866 13.6845 8.98836 13.3184C8.42816 12.9524 7.99146 12.4321 7.73356 11.8234C7.47576 11.2147 7.40826 10.5449 7.53966 9.89871C7.67116 9.25261 7.99566 8.65901 8.47206 8.19312C8.94856 7.72724 9.55566 7.40997 10.2165 7.28144C10.8774 7.1529 11.5625 7.21887 12.185 7.47101C12.8075 7.72314 13.3396 8.1501 13.714 8.69791C14.0883 9.24571 14.2881 9.88981 14.2881 10.5486C14.2899 10.9866 14.203 11.4205 14.0324 11.8254C13.8618 12.2304 13.6109 12.5983 13.2942 12.908C12.9775 13.2176 12.6012 13.4629 12.187 13.6297C11.7729 13.7965 11.3291 13.8816 10.8812 13.8798Z" fill="#898BBF"/>
<path d="M15.1067 21.1107H6.4837C4.7641 21.1107 3.1149 20.4428 1.899 19.2539C0.683098 18.0649 0 16.4524 0 14.771V6.33966C0 4.65828 0.683098 3.04576 1.899 1.85684C3.1149 0.66792 4.7641 0 6.4837 0H15.1067C16.816 0.01698 18.4496 0.69199 19.6534 1.87871C20.8572 3.06543 21.5342 4.66822 21.5376 6.33966V14.771C21.5376 16.4435 20.8618 18.0483 19.6573 19.2357C18.4527 20.4231 16.8171 21.0971 15.1067 21.1107ZM6.4837 1.98841C5.3034 1.98841 4.1715 2.44684 3.337 3.26286C2.5024 4.07888 2.0336 5.18564 2.0336 6.33966V14.771C2.0336 15.3424 2.1486 15.9083 2.3723 16.4362C2.5959 16.9641 2.9237 17.4438 3.337 17.8478C3.7502 18.2519 4.2408 18.5724 4.7807 18.7911C5.3206 19.0097 5.8993 19.1223 6.4837 19.1223H15.1067C15.6911 19.1223 16.2697 19.0097 16.8096 18.7911C17.3496 18.5724 17.8401 18.2519 18.2534 17.8478C18.6666 17.4438 18.9944 16.9641 19.218 16.4362C19.4417 15.9083 19.5568 15.3424 19.5568 14.771V6.33966C19.5568 5.18564 19.0879 4.07888 18.2534 3.26286C17.4188 2.44684 16.2869 1.98841 15.1067 1.98841H6.4837Z" fill="#898BBF"/>
</svg>
