<svg width="21" height="17" viewBox="0 0 21 17" fill="none" xmlns="http://www.w3.org/2000/svg">
<path d="M20.2016 1.93096C19.5416 2.20402 18.8496 2.39489 18.1416 2.49908C18.4716 2.49908 18.9596 1.8535 19.1576 1.62109C19.4586 1.26135 19.6865 0.849628 19.8315 0.407378C19.8315 0.407378 19.8315 0.329908 19.8315 0.304088C19.8155 0.295018 19.7976 0.290248 19.7786 0.290248C19.7596 0.290248 19.7416 0.295018 19.7256 0.304088C18.9566 0.702018 18.1406 1.0056 17.2956 1.20791C17.2706 1.22404 17.2406 1.23261 17.2106 1.23261C17.1796 1.23261 17.1495 1.22404 17.1245 1.20791C17.0605 1.13275 16.9895 1.06358 16.9135 1.00132C16.5595 0.709458 16.1636 0.470168 15.7376 0.291168C15.1636 0.0686582 14.5455 -0.0282818 13.9285 0.00711822C13.3285 0.0484782 12.7446 0.211148 12.2126 0.484848C11.6806 0.757768 11.2095 1.13074 10.8256 1.58234C10.4366 2.06092 10.1575 2.61578 10.0065 3.20922C9.88755 3.77139 9.88755 4.35139 10.0065 4.91356C10.0065 5.00394 10.0066 5.01686 9.91455 5.00394C6.68355 4.68206 3.69155 3.18978 1.52955 0.820558C1.42355 0.717258 1.37055 0.717258 1.29155 0.820558C0.860553 1.60479 0.698555 2.50347 0.829555 3.38438C0.960555 4.26528 1.37655 5.08189 2.01755 5.71409C2.17655 5.85612 2.34755 6.01105 2.53255 6.15305C1.97155 6.11245 1.42355 5.96326 0.921551 5.71409C0.829551 5.64953 0.776553 5.71409 0.763553 5.79156C0.750553 5.94623 0.750553 6.10175 0.763553 6.25635C0.862553 6.99195 1.15955 7.68865 1.62355 8.27595C2.08755 8.86315 2.70155 9.32015 3.40455 9.60055C3.58055 9.66575 3.76155 9.71755 3.94555 9.75545C3.42055 9.83925 2.88555 9.83925 2.36055 9.75545C2.24255 9.75545 2.20255 9.75545 2.24255 9.89745C2.51355 10.5886 2.96055 11.2011 3.54055 11.6775C4.11955 12.154 4.81355 12.4789 5.55655 12.6218H6.01855C5.37255 13.1903 4.59255 13.5939 3.74755 13.7968C2.64355 14.1795 1.46856 14.3291 0.300556 14.2358C0.116556 14.2358 0.0765556 14.2358 0.0235556 14.2358C-0.0294444 14.2358 0.0235556 14.3003 0.0235556 14.352C0.258556 14.5021 0.500553 14.64 0.749554 14.7651C1.47855 15.151 2.24955 15.4543 3.04755 15.669C5.09955 16.2673 7.27555 16.3307 9.36055 15.8528C11.4456 15.3749 13.3666 14.3724 14.9326 12.9446C16.0586 11.747 16.9296 10.3429 17.4966 8.81365C18.0626 7.28435 18.3136 5.66028 18.2336 4.03557C18.2336 3.90645 18.3785 3.8419 18.4715 3.77734C19.0875 3.30178 19.6346 2.74568 20.0956 2.12464C20.1636 2.03482 20.2006 1.92635 20.2016 1.81475C20.2016 1.81475 20.2806 1.89223 20.2016 1.93096Z" fill="#898BBF"/>
</svg>
